<svg t="1687691606778" class="icon" viewBox="0 0 1024 1024" version="1.1" xmlns="http://www.w3.org/2000/svg" p-id="8881" width="200" height="200"><path d="M483.555556 910.222222c-131.584 0-227.555556-133.973333-259.584-184.604444H131.584c-42.666667 0-74.695111-32.597333-74.695111-76.060445v-278.755555c0-39.822222 32.028444-76.003556 74.695111-76.003556h92.387556C256 244.053333 352.028444 113.777778 483.555556 113.777778c21.333333 0 35.555556 14.506667 35.555555 36.181333v724.081778c0 21.674667-14.222222 36.181333-35.555555 36.181333z m149.048888-558.762666a42.666667 42.666667 0 0 1 60.302223 0l100.579555 100.579555 100.579556-100.579555a42.666667 42.666667 0 0 1 60.302222 60.359111L853.902222 512.398222l100.579556 100.579556a42.666667 42.666667 0 0 1 4.096 55.523555l-4.096 4.778667a42.666667 42.666667 0 0 1-60.359111 0l-100.579556-100.522667-100.579555 100.522667a42.666667 42.666667 0 0 1-60.302223-60.302222l100.522667-100.579556-100.522667-100.579555a42.666667 42.666667 0 0 1-4.152889-55.580445z" p-id="8882"></path></svg>
