<?xml version="1.0" encoding="UTF-8"?>
<svg width="18px" height="18px" viewBox="0 0 18 18" version="1.1" xmlns="http://www.w3.org/2000/svg" xmlns:xlink="http://www.w3.org/1999/xlink">
    <title>plyr-volume</title>
    <g id="0430需求" stroke="none" stroke-width="1" fill="none" fill-rule="evenodd">
        <g id="1、视频播放器" transform="translate(-717.000000, -791.000000)">
            <g id="plyr-volume" transform="translate(717.000000, 791.000000)">
                <rect id="矩形备份-14" fill-opacity="0" fill="#D8D8D8" x="0" y="0" width="18" height="18"></rect>
                <g id="编组-6">
                    <rect id="矩形" stroke="#979797" fill="#D8D8D8" opacity="0" x="0.5" y="0.5" width="17" height="17"></rect>
                    <path d="M9,16 C6.6875,16 5,13.6454545 4.4375,12.7545455 L2.8125,12.7545455 C2.0625,12.7545455 1.5,12.1818182 1.5,11.4181818 L1.5,6.51818182 C1.5,5.81818182 2.0625,5.18181818 2.8125,5.18181818 L4.4375,5.18181818 C5,4.29090909 6.6875,2 9,2 C9.375,2 9.625,2.25454546 9.625,2.63636363 L9.625,15.3636364 C9.625,15.7454546 9.375,16 9,16 Z M11.8125,12.7545455 C11.625,12.7545455 11.5,12.6909091 11.375,12.5636364 C11.125,12.3090909 11.1875,11.9272727 11.4375,11.6727273 C11.625,11.4818182 11.8125,11.2909091 11.9375,11.1 C12.375,10.5272727 12.5625,9.76363636 12.5625,9.06363637 C12.5625,8.3 12.3125,7.60000001 11.875,6.96363637 C11.75,6.77272728 11.5625,6.58181819 11.375,6.45454545 C11.125,6.19999999 11.125,5.81818181 11.3125,5.56363636 C11.5,5.30909092 11.9375,5.3090909 12.1875,5.49999999 C12.4375,5.69090908 12.625,5.94545454 12.875,6.26363636 C13.4375,7.09090909 13.75,8.04545454 13.75,9.12727272 C13.75,10.1454545 13.4375,11.1 12.875,11.9272727 C12.6875,12.1818182 12.4375,12.4363636 12.1875,12.6909091 C12.125,12.6909091 11.9375,12.7545455 11.8125,12.7545455 L11.8125,12.7545455 Z" id="形状" fill="#FFFFFF" fill-rule="nonzero"></path>
                    <path d="M12.5624998,15.5545455 C12.3749998,15.5545455 12.1249998,15.4272727 11.9999998,15.2363636 C11.8124998,14.9181818 11.9374998,14.5363636 12.1874998,14.3454545 C14.0624998,13.2 15.1874998,11.1636364 15.1874998,9 C15.1874998,6.83636363 14.1249998,4.86363637 12.2499998,3.65454545 C11.9374998,3.46363636 11.8749998,3.08181818 12.0624998,2.76363636 C12.2499998,2.44545455 12.6249998,2.38181818 12.9374998,2.57272727 C15.1874998,3.97272726 16.4999998,6.39090909 16.4999998,9 C16.4999998,11.6090909 15.1249998,14.0909091 12.8749998,15.4909091 C12.8124998,15.5545455 12.6874998,15.5545455 12.5624998,15.5545455 L12.5624998,15.5545455 Z" id="路径" fill="#FFFFFF" fill-rule="nonzero"></path>
                </g>
            </g>
        </g>
    </g>
</svg>