<svg t="1687691594871" class="icon" viewBox="0 0 1024 1024" version="1.1" xmlns="http://www.w3.org/2000/svg" p-id="8743" width="200" height="200"><path d="M824.888889 156.444444a42.666667 42.666667 0 0 1 42.666667 42.666667v186.88a42.666667 42.666667 0 1 1-85.333334 0V241.777778h-144.668444a42.666667 42.666667 0 0 1-42.268445-36.864l-0.398222-5.802667a42.666667 42.666667 0 0 1 42.666667-42.666667H824.888889z m0 437.930667a42.666667 42.666667 0 0 1 42.666667 42.666667V824.888889a42.666667 42.666667 0 0 1-42.666667 42.666667h-187.733333a42.666667 42.666667 0 0 1 0-85.333334l145.009777-0.056889 0.056889-145.066666a42.666667 42.666667 0 0 1 36.864-42.325334l5.802667-0.398222z m-625.777778 0.455111a42.666667 42.666667 0 0 1 42.666667 42.666667v144.668444l145.066666 0.056889a42.666667 42.666667 0 0 1 42.268445 36.864l0.398222 5.802667a42.666667 42.666667 0 0 1-42.666667 42.666667H199.111111a42.666667 42.666667 0 0 1-42.666667-42.666667v-187.392a42.666667 42.666667 0 0 1 42.666667-42.666667zM386.104889 156.444444a42.666667 42.666667 0 0 1 0 85.333334H241.777778v145.976889a42.666667 42.666667 0 0 1-36.864 42.268444l-5.802667 0.398222a42.666667 42.666667 0 0 1-42.666667-42.666666V199.111111a42.666667 42.666667 0 0 1 42.666667-42.666667h186.993778z" p-id="8744"></path></svg>
