<svg t="1687691546549" class="icon" viewBox="0 0 1024 1024" version="1.1" xmlns="http://www.w3.org/2000/svg" p-id="8329" width="200" height="200"><path d="M867.555556 497.777778a42.666667 42.666667 0 0 1 42.666666 42.666666v284.444445a42.666667 42.666667 0 0 1-42.666666 42.666667H156.444444A42.666667 42.666667 0 0 1 113.777778 824.888889v-284.444445a42.666667 42.666667 0 0 1 85.333333 0v241.777778h625.777778V540.444444a42.666667 42.666667 0 0 1 36.864-42.268444l5.802667-0.398222zM512.398222 170.666667c23.608889 0 42.780444 19.114667 42.780445 42.723555l-0.056889 265.841778 107.975111-107.747556a42.780444 42.780444 0 0 1 64.625778 55.523556l-4.096 4.778667-176.64 176.355555a42.666667 42.666667 0 0 1-64.796445 5.12l-0.398222-0.398222L300.373333 431.843556a42.666667 42.666667 0 0 1 0-60.302223 42.780444 42.780444 0 0 1 60.472889 0l108.771556 108.544V213.390222c0-23.608889 19.114667-42.723556 42.723555-42.723555z" p-id="8330"></path></svg>
