<svg t="1687691523620" class="icon" viewBox="0 0 1024 1024" version="1.1" xmlns="http://www.w3.org/2000/svg" p-id="8053" width="200" height="200"><path d="M684.202667 93.297778a113.777778 113.777778 0 0 1 98.531555 56.888889L958.805333 455.111111a113.777778 113.777778 0 0 1 0 113.777778l-176.071111 304.981333a113.777778 113.777778 0 0 1-98.531555 56.888889h-352.142223a113.777778 113.777778 0 0 1-98.588444-56.888889l-176.071111-304.924444a113.777778 113.777778 0 0 1 0-113.777778L233.472 150.186667a113.777778 113.777778 0 0 1 98.531556-56.888889h352.199111z m0 85.333333h-352.142223a28.444444 28.444444 0 0 0-24.689777 14.222222L131.299556 497.777778a28.444444 28.444444 0 0 0 0 28.444444l176.071111 304.981334a28.444444 28.444444 0 0 0 24.632889 14.222222h352.199111a28.444444 28.444444 0 0 0 24.632889-14.222222l176.071111-304.924445a28.444444 28.444444 0 0 0 0-28.444444L708.835556 192.853333a28.444444 28.444444 0 0 0-24.632889-14.222222zM512 312.888889a199.111111 199.111111 0 1 1 0 398.222222 199.111111 199.111111 0 0 1 0-398.222222zM512 398.222222a113.777778 113.777778 0 1 0 0 227.555556 113.777778 113.777778 0 0 0 0-227.555556z" p-id="8054"></path></svg>
