<svg t="1687691654757" class="icon" viewBox="0 0 1024 1024" version="1.1" xmlns="http://www.w3.org/2000/svg" p-id="9433" width="200" height="200"><path d="M711.111111 497.777778a213.333333 213.333333 0 1 1 0 426.666666 213.333333 213.333333 0 0 1 0-426.666666z m89.713778-369.777778c53.361778 0 95.175111 45.283556 95.175111 99.555556v171.463111a42.666667 42.666667 0 1 1-85.333333 0V227.555556c0-8.533333-5.176889-14.222222-9.841778-14.222223H223.175111c-4.664889 0-9.841778 5.688889-9.841778 14.222223v568.888888c0 8.533333 5.176889 14.222222 9.841778 14.222223H398.222222a42.666667 42.666667 0 1 1 0 85.333333H223.175111c-53.361778 0-95.175111-45.283556-95.175111-99.555556V227.555556c0-54.272 41.813333-99.555556 95.175111-99.555556h577.649778z m-20.366222 490.951111l-90.282667 100.124445-37.944889-37.432889a42.666667 42.666667 0 0 0-60.017778 60.700444l69.745778 68.949333a42.666667 42.666667 0 0 0 61.724445-1.820444l120.149333-133.404444a42.666667 42.666667 0 0 0-63.374222-57.116445zM469.333333 455.111111a42.666667 42.666667 0 0 1 0 85.333333h-142.222222a42.666667 42.666667 0 0 1 0-85.333333h142.222222z m-113.777777-170.666667a42.666667 42.666667 0 0 1 0 85.333334h-28.444445a42.666667 42.666667 0 0 1 0-85.333334h28.444445z m341.333333 0a42.666667 42.666667 0 1 1 0 85.333334h-199.111111a42.666667 42.666667 0 0 1 0-85.333334h199.111111z" p-id="9434"></path></svg>
