<svg t="1687691561744" class="icon" viewBox="0 0 1024 1024" version="1.1" xmlns="http://www.w3.org/2000/svg" p-id="8467" width="200" height="200"><path d="M853.333333 142.222222a56.888889 56.888889 0 0 1 56.888889 56.888889v625.777778a56.888889 56.888889 0 0 1-56.888889 56.888889H170.666667a56.888889 56.888889 0 0 1-56.888889-56.888889v-625.777778a56.888889 56.888889 0 0 1 56.888889-56.888889h682.666666zM824.888889 227.555556h-625.777778v568.888888h625.777778V227.555556z m-113.777778 256a28.444444 28.444444 0 0 1 28.444445 28.444444v170.666667a28.444444 28.444444 0 0 1-28.444445 28.444444h-227.555555A28.444444 28.444444 0 0 1 455.111111 682.666667V512a28.444444 28.444444 0 0 1 28.444445-28.444444h227.555555z" p-id="8468"></path></svg>
