<svg t="1687691631665" class="icon" viewBox="0 0 1024 1024" version="1.1" xmlns="http://www.w3.org/2000/svg" p-id="9157" width="200" height="200"><path d="M796.444444 142.222222a42.666667 42.666667 0 0 1 42.666667 42.666667v654.222222a42.666667 42.666667 0 1 1-85.333333 0V184.888889A42.666667 42.666667 0 0 1 796.444444 142.222222z m-538.737777 40.846222l301.738666 299.008 4.096 4.664889-4.039111-4.551111a42.097778 42.097778 0 0 1 0.227556 59.505778l-301.966222 299.235556a42.837333 42.837333 0 0 1-60.302223 0 42.097778 42.097778 0 0 1-0.284444-59.505778l271.815111-269.482667L197.404444 242.915556a42.097778 42.097778 0 0 1-0.284444-59.562667 42.951111 42.951111 0 0 1 60.586667-0.227556z" p-id="9158"></path></svg>
