<?xml version="1.0" encoding="UTF-8"?>
<svg width="18px" height="18px" viewBox="0 0 18 18" version="1.1" xmlns="http://www.w3.org/2000/svg" xmlns:xlink="http://www.w3.org/1999/xlink">
    <title>plyr-pip</title>
    <g id="0430需求" stroke="none" stroke-width="1" fill="none" fill-rule="evenodd">
        <g id="1、视频播放器" transform="translate(-490.000000, -791.000000)">
            <g id="plyr-pip" transform="translate(490.000000, 791.000000)">
                <rect id="矩形备份-9" fill-opacity="0" fill="#D8D8D8" x="0" y="0" width="18" height="18"></rect>
                <g id="编组-4">
                    <rect id="矩形" stroke="#979797" fill="#D8D8D8" opacity="0" x="0.5" y="0.5" width="17" height="17"></rect>
                    <path d="M15,2.5 C15.5522847,2.5 16,2.94771525 16,3.5 L16,14.5 C16,15.0522847 15.5522847,15.5 15,15.5 L3,15.5 C2.44771525,15.5 2,15.0522847 2,14.5 L2,3.5 C2,2.94771525 2.44771525,2.5 3,2.5 L15,2.5 Z M14.5,4 L3.5,4 L3.5,14 L14.5,14 L14.5,4 Z M12.5,8.5 C12.7761424,8.5 13,8.72385763 13,9 L13,12 C13,12.2761424 12.7761424,12.5 12.5,12.5 L8.5,12.5 C8.22385763,12.5 8,12.2761424 8,12 L8,9 C8,8.72385763 8.22385763,8.5 8.5,8.5 L12.5,8.5 Z" id="形状结合" fill="#FFFFFF"></path>
                </g>
            </g>
        </g>
    </g>
</svg>