<svg t="1687691534704" class="icon" viewBox="0 0 1024 1024" version="1.1" xmlns="http://www.w3.org/2000/svg" p-id="8191" width="200" height="200"><path d="M806.115556 103.822222a39.822222 39.822222 0 0 1 13.767111 17.066667l78.108444 183.978667a39.822222 39.822222 0 0 1-38.741333 55.296l-199.623111-10.410667a39.822222 39.822222 0 0 1-30.549334-62.577778l42.552889-60.814222A327.111111 327.111111 0 1 0 835.128889 563.2a42.666667 42.666667 0 0 1 84.309333 13.255111A412.558222 412.558222 0 0 1 99.555556 512a412.444444 412.444444 0 0 1 621.226666-355.783111l29.809778-42.666667a39.822222 39.822222 0 0 1 55.466667-9.728z" p-id="8192"></path></svg>
