<svg t="1687691576590" class="icon" viewBox="0 0 1024 1024" version="1.1" xmlns="http://www.w3.org/2000/svg" p-id="8605" width="200" height="200"><path d="M637.553778 428.657778a42.666667 42.666667 0 0 1-42.666667-42.666667V199.111111a42.666667 42.666667 0 1 1 85.333333 0l0.056889 144.213333H824.888889a42.666667 42.666667 0 0 1 42.268444 36.864l0.398223 5.802667a42.666667 42.666667 0 0 1-42.666667 42.666667h-187.335111z m-0.341334 438.897778a42.666667 42.666667 0 0 1-42.666666-42.666667v-187.847111a42.666667 42.666667 0 0 1 42.666666-42.666667H824.888889a42.666667 42.666667 0 0 1 0 85.333333l-145.009778 0.056889V824.888889a42.666667 42.666667 0 0 1-36.920889 42.268444l-5.745778 0.398223z m-250.368 0a42.666667 42.666667 0 0 1-42.666666-42.666667v-144.725333H199.111111a42.666667 42.666667 0 0 1-42.268444-36.864l-0.398223-5.802667a42.666667 42.666667 0 0 1 42.666667-42.666667h187.733333a42.666667 42.666667 0 0 1 42.666667 42.666667V824.888889a42.666667 42.666667 0 0 1-42.666667 42.666667zM199.111111 430.421333a42.666667 42.666667 0 0 1 0-85.333333h144.327111V199.111111a42.666667 42.666667 0 0 1 36.864-42.268444l5.802667-0.398223a42.666667 42.666667 0 0 1 42.666667 42.666667v188.643556a42.666667 42.666667 0 0 1-42.666667 42.666666H199.111111z" p-id="8606"></path></svg>
