<?xml version="1.0" encoding="UTF-8"?>
<svg width="18px" height="18px" viewBox="0 0 18 18" version="1.1" xmlns="http://www.w3.org/2000/svg" xmlns:xlink="http://www.w3.org/1999/xlink">
    <title>plyr-play</title>
    <g id="0430需求" stroke="none" stroke-width="1" fill="none" fill-rule="evenodd">
        <g id="1、视频播放器" transform="translate(-541.000000, -791.000000)">
            <g id="plyr-play" transform="translate(541.000000, 791.000000)">
                <rect id="矩形备份-10" fill-opacity="0" fill="#D8D8D8" x="0" y="0" width="18" height="18"></rect>
                <path d="M5,3.5 C5.55228475,3.5 6,3.94771525 6,4.5 L6,13.5 C6,14.0522847 5.55228475,14.5 5,14.5 C4.44771525,14.5 4,14.0522847 4,13.5 L4,4.5 C4,3.94771525 4.44771525,3.5 5,3.5 Z M13,3.5 C13.5522847,3.5 14,3.94771525 14,4.5 L14,13.5 C14,14.0522847 13.5522847,14.5 13,14.5 C12.4477153,14.5 12,14.0522847 12,13.5 L12,4.5 C12,3.94771525 12.4477153,3.5 13,3.5 Z" id="形状结合" fill="#FFFFFF"></path>
            </g>
        </g>
    </g>
</svg>