<?xml version="1.0" encoding="UTF-8"?>
<svg width="18px" height="18px" viewBox="0 0 18 18" version="1.1" xmlns="http://www.w3.org/2000/svg" xmlns:xlink="http://www.w3.org/1999/xlink">
    <title>plyr-exit-fullscreen</title>
    <g id="0430需求" stroke="none" stroke-width="1" fill="none" fill-rule="evenodd">
        <g id="1、视频播放器" transform="translate(-293.000000, -791.000000)">
            <g id="plyr-exit-fullscreen" transform="translate(293.000000, 791.000000)">
                <rect id="矩形备份-5" fill-opacity="0" fill="#D8D8D8" x="0" y="0" width="18" height="18"></rect>
                <g id="编组-3备份">
                    <rect id="矩形" stroke="#979797" fill="#D8D8D8" opacity="0" x="0.5" y="0.5" width="17" height="17"></rect>
                    <path d="M11.207396,7.5347253 C10.7931824,7.5347253 10.457396,7.19893887 10.457396,6.7847253 L10.457396,3.5 C10.457396,3.08578644 10.7931824,2.75 11.207396,2.75 C11.6216095,2.75 11.957396,3.08578644 11.957396,3.5 L11.958,6.0347253 L14.5,6.0347253 C14.8796958,6.0347253 15.193491,6.31687919 15.2431534,6.68295475 L15.25,6.7847253 C15.25,7.19893887 14.9142136,7.5347253 14.5,7.5347253 L11.207396,7.5347253 Z M11.2005948,15.25 C10.7863813,15.25 10.4505948,14.9142136 10.4505948,14.5 L10.4505948,11.1980959 C10.4505948,10.7838824 10.7863813,10.4480959 11.2005948,10.4480959 L14.5,10.4480959 C14.9142136,10.4480959 15.25,10.7838824 15.25,11.1980959 C15.25,11.6123095 14.9142136,11.9480959 14.5,11.9480959 L11.951,11.949 L11.9505948,14.5 C11.9505948,14.8796958 11.6684409,15.193491 11.3023654,15.2431534 L11.2005948,15.25 Z M6.79995959,15.25 C6.38574603,15.25 6.04995959,14.9142136 6.04995959,14.5 L6.04995959,11.956 L3.5,11.9559034 C3.12030423,11.9559034 2.80650904,11.6737495 2.75684662,11.3076739 L2.75,11.2059034 C2.75,10.7916898 3.08578644,10.4559034 3.5,10.4559034 L6.79995959,10.4559034 C7.21417315,10.4559034 7.54995959,10.7916898 7.54995959,11.2059034 L7.54995959,14.5 C7.54995959,14.9142136 7.21417315,15.25 6.79995959,15.25 Z M3.5,7.56565621 C3.08578644,7.56565621 2.75,7.22986977 2.75,6.81565621 C2.75,6.40144265 3.08578644,6.06565621 3.5,6.06565621 L6.03722281,6.06565621 L6.03722281,3.5 C6.03722281,3.12030423 6.31937669,2.80650904 6.68545225,2.75684662 L6.78722281,2.75 C7.20143637,2.75 7.53722281,3.08578644 7.53722281,3.5 L7.53722281,6.81565621 C7.53722281,7.22986977 7.20143637,7.56565621 6.78722281,7.56565621 L3.5,7.56565621 Z" id="形状结合" fill="#FFFFFF" fill-rule="nonzero"></path>
                </g>
            </g>
        </g>
    </g>
</svg>