<?xml version="1.0" encoding="UTF-8"?>
<svg width="18px" height="18px" viewBox="0 0 18 18" version="1.1" xmlns="http://www.w3.org/2000/svg" xmlns:xlink="http://www.w3.org/1999/xlink">
    <title>plyr-enter-fullscreen</title>
    <g id="0430需求" stroke="none" stroke-width="1" fill="none" fill-rule="evenodd">
        <g id="1、视频播放器" transform="translate(-235.000000, -791.000000)">
            <g id="plyr-enter-fullscreen" transform="translate(235.000000, 791.000000)">
                <rect id="矩形备份-4" fill-opacity="0" fill="#D8D8D8" x="0" y="0" width="18" height="18"></rect>
                <g id="编组-3">
                    <rect id="矩形" stroke="#979797" fill="#D8D8D8" opacity="0" x="0.5" y="0.5" width="17" height="17"></rect>
                    <path d="M14.5,2.75 C14.9142136,2.75 15.25,3.08578644 15.25,3.5 L15.25,6.7847253 C15.25,7.19893887 14.9142136,7.5347253 14.5,7.5347253 C14.0857864,7.5347253 13.75,7.19893887 13.75,6.7847253 L13.75,4.25 L11.207396,4.25 C10.8277002,4.25 10.513905,3.96784612 10.4642426,3.60177056 L10.457396,3.5 C10.457396,3.08578644 10.7931824,2.75 11.207396,2.75 L14.5,2.75 Z M14.5,10.4480959 C14.9142136,10.4480959 15.25,10.7838824 15.25,11.1980959 L15.25,14.5 C15.25,14.9142136 14.9142136,15.25 14.5,15.25 L11.2005948,15.25 C10.7863813,15.25 10.4505948,14.9142136 10.4505948,14.5 C10.4505948,14.0857864 10.7863813,13.75 11.2005948,13.75 L13.749,13.749 L13.75,11.1980959 C13.75,10.8184002 14.0321539,10.504605 14.3982294,10.4549426 L14.5,10.4480959 Z M3.5,10.4559034 C3.91421356,10.4559034 4.25,10.7916898 4.25,11.2059034 L4.25,13.749 L6.79995959,13.75 C7.17965536,13.75 7.49345055,14.0321539 7.54311297,14.3982294 L7.54995959,14.5 C7.54995959,14.9142136 7.21417315,15.25 6.79995959,15.25 L3.5,15.25 C3.08578644,15.25 2.75,14.9142136 2.75,14.5 L2.75,11.2059034 C2.75,10.7916898 3.08578644,10.4559034 3.5,10.4559034 Z M6.78722281,2.75 C7.20143637,2.75 7.53722281,3.08578644 7.53722281,3.5 C7.53722281,3.91421356 7.20143637,4.25 6.78722281,4.25 L4.25,4.25 L4.25,6.81565621 C4.25,7.19535198 3.96784612,7.50914717 3.60177056,7.55880959 L3.5,7.56565621 C3.08578644,7.56565621 2.75,7.22986977 2.75,6.81565621 L2.75,3.5 C2.75,3.08578644 3.08578644,2.75 3.5,2.75 L6.78722281,2.75 Z" id="形状" fill="#FFFFFF" fill-rule="nonzero"></path>
                </g>
            </g>
        </g>
    </g>
</svg>