<?xml version="1.0" encoding="UTF-8"?>
<svg width="18px" height="18px" viewBox="0 0 18 18" version="1.1" xmlns="http://www.w3.org/2000/svg" xmlns:xlink="http://www.w3.org/1999/xlink">
    <title>plyr-download</title>
    <g id="0430需求" stroke="none" stroke-width="1" fill="none" fill-rule="evenodd">
        <g id="1、视频播放器" transform="translate(-191.000000, -791.000000)">
            <g id="plyr-download" transform="translate(191.000000, 791.000000)">
                <rect id="矩形备份-3" fill-opacity="0" fill="#D8D8D8" x="0" y="0" width="18" height="18"></rect>
                <g id="编组-17">
                    <rect id="矩形" x="0" y="0" width="18" height="18"></rect>
                    <g id="编组-16" transform="translate(2.750000, 3.000000)">
                        <g id="编组-14" transform="translate(2.000000, 0.000000)" fill="#FFFFFF">
                            <rect id="矩形" x="3.50604896" y="0" width="1.50259241" height="8" rx="0.751296207"></rect>
                            <g id="编组-13" transform="translate(0.000000, 3.000000)">
                                <path d="M0.404937005,1.90296451 L4.90882562,1.89907589 C5.32268187,1.89871857 5.6584683,2.23392568 5.65882562,2.64778192 C5.658826,2.64821325 5.658826,2.64864457 5.65882562,2.64907589 C5.65846751,3.0638569 5.32231043,3.40001398 4.90752942,3.4003721 L0.403640799,3.40426072 C-0.0102154439,3.40461804 -0.346001881,3.06941093 -0.346359201,2.65555469 C-0.346359574,2.65512337 -0.346359574,2.65469204 -0.346359201,2.65426072 C-0.346001083,2.23947971 -0.00984400436,1.90332263 0.404937005,1.90296451 Z" id="矩形" transform="translate(2.656233, 2.651668) rotate(45.000000) translate(-2.656233, -2.651668) "></path>
                                <path d="M3.59114751,1.89907589 L8.09503613,1.90296451 C8.50981714,1.90332263 8.84597422,2.23947971 8.84633234,2.65426072 C8.84668966,3.06811696 8.51148255,3.4039034 8.09762631,3.40426072 C8.09719499,3.40426109 8.09676366,3.40426109 8.09633234,3.40426072 L3.59244372,3.4003721 C3.17766271,3.40001398 2.84150563,3.0638569 2.84114751,2.64907589 C2.84079019,2.23521965 3.1759973,1.89943321 3.58985354,1.89907589 C3.59028487,1.89907552 3.59071619,1.89907552 3.59114751,1.89907589 Z" id="矩形备份" transform="translate(5.843740, 2.651668) rotate(-45.000000) translate(-5.843740, -2.651668) "></path>
                            </g>
                        </g>
                        <polyline id="路径" stroke="#FFFFFF" stroke-width="1.5" stroke-linecap="round" stroke-linejoin="round" points="12.5 6.5 12.5 11.5 0 11.5 0 6.5"></polyline>
                    </g>
                </g>
            </g>
        </g>
    </g>
</svg>