<?xml version="1.0" encoding="UTF-8"?>
<svg width="18px" height="18px" viewBox="0 0 18 18" version="1.1" xmlns="http://www.w3.org/2000/svg" xmlns:xlink="http://www.w3.org/1999/xlink">
    <title>plyr-captions-off</title>
    <g id="0430需求" stroke="none" stroke-width="1" fill="none" fill-rule="evenodd">
        <g id="1、视频播放器" transform="translate(-140.000000, -791.000000)">
            <g id="plyr-captions-off" transform="translate(140.000000, 791.000000)">
                <rect id="矩形备份-2" fill-opacity="0" fill="#D8D8D8" x="0" y="0" width="18" height="18"></rect>
                <path d="M12.5,8.75 C14.5710678,8.75 16.25,10.4289322 16.25,12.5 C16.25,14.5710678 14.5710678,16.25 12.5,16.25 C10.4289322,16.25 8.75,14.5710678 8.75,12.5 C8.75,10.4289322 10.4289322,8.75 12.5,8.75 Z M14.0769231,2.25 C15.0149402,2.25 15.75,3.04631475 15.75,4 L15.75,7.01437921 C15.75,7.42859277 15.4142136,7.76437921 15,7.76437921 C14.5857864,7.76437921 14.25,7.42859277 14.25,7.01437921 L14.25,4 C14.25,3.84911575 14.1585085,3.75 14.0769231,3.75 L3.92307692,3.75 C3.84149146,3.75 3.75,3.84911575 3.75,4 L3.75,14 C3.75,14.1508842 3.84149146,14.25 3.92307692,14.25 L7,14.25 C7.41421356,14.25 7.75,14.5857864 7.75,15 C7.75,15.4142136 7.41421356,15.75 7,15.75 L3.92307692,15.75 C2.98505977,15.75 2.25,14.9536853 2.25,14 L2.25,4 C2.25,3.04631475 2.98505977,2.25 3.92307692,2.25 L14.0769231,2.25 Z M14.5317941,11.5321823 L14.517767,11.548097 L11.5341592,14.5327362 C11.826815,14.6720377 12.154303,14.75 12.5,14.75 C13.7426407,14.75 14.75,13.7426407 14.75,12.5 C14.75,12.1535244 14.6716861,11.8253399 14.5317941,11.5321823 Z M12.5,10.25 C11.2573593,10.25 10.25,11.2573593 10.25,12.5 C10.25,12.8488114 10.3293733,13.1790842 10.4710436,13.4737419 L13.4571068,10.4874369 L13.4757146,10.4719932 C13.1805585,10.3297281 12.84959,10.25 12.5,10.25 Z M8.25,8 C8.66421356,8 9,8.33578644 9,8.75 C9,9.16421356 8.66421356,9.5 8.25,9.5 L5.75,9.5 C5.33578644,9.5 5,9.16421356 5,8.75 C5,8.33578644 5.33578644,8 5.75,8 L8.25,8 Z M6.25,5 C6.66421356,5 7,5.33578644 7,5.75 C7,6.16421356 6.66421356,6.5 6.25,6.5 L5.75,6.5 C5.33578644,6.5 5,6.16421356 5,5.75 C5,5.33578644 5.33578644,5 5.75,5 L6.25,5 Z M12.25,5 C12.6642136,5 13,5.33578644 13,5.75 C13,6.16421356 12.6642136,6.5 12.25,6.5 L8.75,6.5 C8.33578644,6.5 8,6.16421356 8,5.75 C8,5.33578644 8.33578644,5 8.75,5 L12.25,5 Z" id="形状结合" fill="#FFFFFF" fill-rule="nonzero"></path>
            </g>
        </g>
    </g>
</svg>