<svg t="1687691668277" class="icon" viewBox="0 0 1024 1024" version="1.1" xmlns="http://www.w3.org/2000/svg" p-id="9571" width="200" height="200"><path d="M512 113.777778c21.333333 0 35.555556 14.506667 35.555556 36.181333v724.081778c0 21.674667-14.222222 36.181333-35.555556 36.181333-131.584 0-227.555556-133.973333-259.584-184.604444H160.028444c-42.666667 0-74.638222-32.597333-74.638222-76.060445v-278.755555c0-39.822222 32.028444-76.003556 74.695111-76.003556h92.387556C284.444444 244.053333 380.472889 113.777778 512 113.777778z m223.971556 32.597333A428.202667 428.202667 0 0 1 938.666667 512c0 148.48-78.222222 289.564444-206.222223 369.208889-3.584 3.697778-10.695111 3.697778-17.806222 3.697778a42.211556 42.211556 0 0 1-31.971555-18.147556c-10.695111-18.090667-3.584-39.822222 10.638222-50.631111a356.693333 356.693333 0 0 0 170.666667-304.128c0-123.107556-60.416-235.292444-167.082667-304.071111-17.806222-10.865778-21.333333-32.597333-10.695111-50.688 10.695111-18.147556 32.028444-21.731556 49.777778-10.865778z m-42.666667 166.513778c14.222222 10.808889 24.917333 25.315556 39.139555 43.463111 32.028444 47.047111 49.777778 101.319111 49.777778 162.872889a281.144889 281.144889 0 0 1-49.777778 159.288889c-10.695111 14.506667-24.917333 29.013333-39.139555 43.463111-3.527111 0-14.222222 3.640889-21.276445 3.640889a32.028444 32.028444 0 0 1-24.917333-10.865778c-14.222222-14.506667-10.695111-36.238222 3.584-50.688 10.638222-10.865778 21.276444-21.731556 28.444445-32.597333 24.860444-32.597333 35.498667-76.003556 35.498666-115.825778 0-43.463111-14.222222-83.285333-39.082666-119.466667a109.226667 109.226667 0 0 0-28.444445-29.013333 39.253333 39.253333 0 0 1-3.584-50.631111c10.695111-14.506667 35.612444-14.506667 49.834667-3.640889z" p-id="9572"></path></svg>
