<?xml version="1.0" encoding="UTF-8"?>
<svg width="18px" height="18px" viewBox="0 0 18 18" version="1.1" xmlns="http://www.w3.org/2000/svg" xmlns:xlink="http://www.w3.org/1999/xlink">
    <title>plyr-rewind</title>
    <g id="0430需求" stroke="none" stroke-width="1" fill="none" fill-rule="evenodd">
        <g id="1、视频播放器" transform="translate(-629.000000, -791.000000)">
            <g id="plyr-rewind" transform="translate(629.000000, 791.000000)">
                <rect id="矩形备份-12" fill-opacity="0" fill="#D8D8D8" x="0" y="0" width="18" height="18"></rect>
                <g id="编组-18" transform="translate(8.999710, 9.000000) scale(-1, 1) translate(-8.999710, -9.000000) translate(3.250000, 2.500000)" fill="#FFFFFF">
                    <path d="M10.7494205,0 C11.1636341,-7.6089797e-17 11.4994205,0.335786438 11.4994205,0.75 L11.4994205,12.25 C11.4994205,12.6642136 11.1636341,13 10.7494205,13 C10.3352069,13 9.99942049,12.6642136 9.99942049,12.25 L9.99942049,0.75 C9.99942049,0.335786438 10.3352069,7.6089797e-17 10.7494205,0 Z M1.27975058,0.717708083 L6.58305144,5.97364615 L6.64442049,6.044 L6.65607667,6.05783978 C6.87232078,6.34656558 6.85028199,6.75777128 6.58875014,7.02165987 L1.2807553,12.2822919 C0.987095658,12.5733289 0.513754774,12.5733289 0.22009513,12.2822919 C-0.070182314,11.9946069 -0.0722838805,11.5260757 0.21540115,11.2357983 L4.99242049,6.5 L0.219090409,1.7688957 C-0.0711870355,1.48121067 -0.073288602,1.01267951 0.214396429,0.722402063 C0.512750052,0.426671059 0.986090937,0.426671059 1.27975058,0.717708083 Z" id="形状结合"></path>
                </g>
            </g>
        </g>
    </g>
</svg>