<?xml version="1.0" encoding="UTF-8"?>
<svg width="18px" height="18px" viewBox="0 0 18 18" version="1.1" xmlns="http://www.w3.org/2000/svg" xmlns:xlink="http://www.w3.org/1999/xlink">
    <title>plyr-muted</title>
    <g id="0430需求" stroke="none" stroke-width="1" fill="none" fill-rule="evenodd">
        <g id="1、视频播放器" transform="translate(-395.000000, -791.000000)">
            <g id="plyr-muted" transform="translate(395.000000, 791.000000)">
                <rect id="矩形备份-7" fill-opacity="0" fill="#D8D8D8" x="0" y="0" width="18" height="18"></rect>
                <g id="编组-6备份">
                    <rect id="矩形" stroke="#979797" fill="#D8D8D8" opacity="0" x="0.5" y="0.5" width="17" height="17"></rect>
                    <path d="M8.5,16 C6.1875,16 4.5,13.6454545 3.9375,12.7545455 L2.3125,12.7545455 C1.5625,12.7545455 1,12.1818182 1,11.4181818 L1,6.51818182 C1,5.81818182 1.5625,5.18181818 2.3125,5.18181818 L3.9375,5.18181818 C4.5,4.29090909 6.1875,2 8.5,2 C8.875,2 9.125,2.25454546 9.125,2.63636363 L9.125,15.3636364 C9.125,15.7454546 8.875,16 8.5,16 Z M11.1196699,6.17836338 C11.4125631,5.88547016 11.8874369,5.88547016 12.1803301,6.17836338 L13.948,7.94569347 L15.715864,6.17836338 C16.0087572,5.88547016 16.4836309,5.88547016 16.7765242,6.17836338 C17.0694174,6.4712566 17.0694174,6.94613033 16.7765242,7.23902355 L15.009,9.00669347 L16.7765242,10.7745575 C17.0427907,11.040824 17.0669968,11.4574877 16.8491423,11.7510992 L16.7765242,11.8352176 C16.4836309,12.1281108 16.0087572,12.1281108 15.715864,11.8352176 L13.948,10.0676935 L12.1803301,11.8352176 C11.8874369,12.1281108 11.4125631,12.1281108 11.1196699,11.8352176 C10.8267767,11.5423244 10.8267767,11.0674507 11.1196699,10.7745575 L12.887,9.00669347 L11.1196699,7.23902355 C10.8534034,6.97275699 10.8291973,6.55609331 11.0470518,6.26248181 Z" id="形状结合" fill="#FFFFFF" fill-rule="nonzero"></path>
                </g>
            </g>
        </g>
    </g>
</svg>