<?xml version="1.0" encoding="UTF-8"?>
<svg width="18px" height="18px" viewBox="0 0 18 18" version="1.1" xmlns="http://www.w3.org/2000/svg" xmlns:xlink="http://www.w3.org/1999/xlink">
    <title>plyr-restart</title>
    <g id="0430需求" stroke="none" stroke-width="1" fill="none" fill-rule="evenodd">
        <g id="1、视频播放器" transform="translate(-585.000000, -791.000000)">
            <g id="plyr-restart" transform="translate(585.000000, 791.000000)">
                <rect id="矩形备份-11" fill-opacity="0" fill="#D8D8D8" x="0" y="0" width="18" height="18"></rect>
                <path d="M14.16919,1.82481684 C14.2766577,1.90006651 14.3608154,2.00400267 14.4120656,2.12477201 L15.7845037,5.35887837 C15.9355266,5.71475911 15.7694566,6.12568574 15.4135758,6.27670869 C15.3157264,6.31823245 15.2097054,6.33692682 15.1035551,6.33137371 L11.5950878,6.14783327 C11.2090164,6.1276365 10.9124164,5.79829108 10.9326131,5.41221968 C10.939467,5.28120503 10.9830011,5.15475334 11.0582508,5.04728567 L11.8057822,3.97946756 C10.9609069,3.50614419 10.0008222,3.25 9,3.25 C5.82436269,3.25 3.25,5.82436269 3.25,9 C3.25,12.1756373 5.82436269,14.75 9,14.75 C11.8408059,14.75 14.2443249,12.6761115 14.6801333,9.89969675 C14.7443651,9.49049368 15.1281599,9.21083922 15.537363,9.27507102 C15.946566,9.33930283 16.2262205,9.72309762 16.1619887,10.1323007 C15.6120703,13.6356785 12.5822201,16.25 9,16.25 C4.99593556,16.25 1.75,13.0040644 1.75,9 C1.75,4.99593556 4.99593556,1.75 9,1.75 C10.3128152,1.75 11.5722799,2.10073974 12.6692978,2.74567137 L13.1942801,1.99671976 C13.4160243,1.68003614 13.8525064,1.60307258 14.16919,1.82481684 Z" id="形状结合" fill="#FFFFFF" fill-rule="nonzero"></path>
            </g>
        </g>
    </g>
</svg>