<?xml version="1.0" encoding="UTF-8"?>
<svg width="18px" height="18px" viewBox="0 0 18 18" version="1.1" xmlns="http://www.w3.org/2000/svg" xmlns:xlink="http://www.w3.org/1999/xlink">
    <title>plyr-settings</title>
    <g id="0430需求" stroke="none" stroke-width="1" fill="none" fill-rule="evenodd">
        <g id="1、视频播放器" transform="translate(-673.000000, -791.000000)">
            <g id="plyr-settings" transform="translate(673.000000, 791.000000)">
                <rect id="矩形备份-13" fill-opacity="0" fill="#D8D8D8" x="0" y="0" width="18" height="18"></rect>
                <path d="M12.0269744,1.63992943 C12.7415056,1.63992943 13.4017596,2.02112728 13.7590252,2.63992943 L16.8543247,8.00114536 C17.2115903,8.61994752 17.2115903,9.38234321 16.8543247,10.0011454 L13.7590252,15.3623613 C13.4017596,15.9811634 12.7415056,16.3623613 12.0269744,16.3623613 L5.83637547,16.3623613 C5.12184429,16.3623613 4.46159026,15.9811634 4.10432467,15.3623613 L1.0090252,10.0011454 C0.651759614,9.38234321 0.651759614,8.61994752 1.0090252,8.00114536 L4.10432467,2.63992943 C4.46159026,2.02112728 5.12184429,1.63992943 5.83637547,1.63992943 L12.0269744,1.63992943 Z M12.0269744,3.13992943 L5.83637547,3.13992943 C5.65774268,3.13992943 5.49267917,3.23522889 5.40336277,3.38992943 L2.30806331,8.75114536 C2.21874691,8.9058459 2.21874691,9.09644482 2.30806331,9.25114536 L5.40336277,14.6123613 C5.49267917,14.7670618 5.65774268,14.8623613 5.83637547,14.8623613 L12.0269744,14.8623613 C12.2056072,14.8623613 12.3706707,14.7670618 12.4599871,14.6123613 L15.5552866,9.25114536 C15.644603,9.09644482 15.644603,8.9058459 15.5552866,8.75114536 L12.4599871,3.38992943 C12.3706707,3.23522889 12.2056072,3.13992943 12.0269744,3.13992943 Z M9,5.5 C10.9329966,5.5 12.5,7.06700338 12.5,9 C12.5,10.9329966 10.9329966,12.5 9,12.5 C7.06700338,12.5 5.5,10.9329966 5.5,9 C5.5,7.06700338 7.06700338,5.5 9,5.5 Z M9,7 C7.8954305,7 7,7.8954305 7,9 C7,10.1045695 7.8954305,11 9,11 C10.1045695,11 11,10.1045695 11,9 C11,7.8954305 10.1045695,7 9,7 Z" id="形状结合" fill="#FFFFFF" fill-rule="nonzero"></path>
            </g>
        </g>
    </g>
</svg>