<?xml version="1.0" encoding="UTF-8"?>
<svg width="18px" height="18px" viewBox="0 0 18 18" version="1.1" xmlns="http://www.w3.org/2000/svg" xmlns:xlink="http://www.w3.org/1999/xlink">
    <title>plyr-fast-forward</title>
    <g id="0430需求" stroke="none" stroke-width="1" fill="none" fill-rule="evenodd">
        <g id="1、视频播放器" transform="translate(-351.000000, -791.000000)">
            <g id="plyr-fast-forward" transform="translate(351.000000, 791.000000)">
                <rect id="矩形备份-6" fill-opacity="0" fill="#D8D8D8" x="0" y="0" width="18" height="18"></rect>
                <path d="M14,2.5 C14.4142136,2.5 14.75,2.83578644 14.75,3.25 L14.75,14.75 C14.75,15.1642136 14.4142136,15.5 14,15.5 C13.5857864,15.5 13.25,15.1642136 13.25,14.75 L13.25,3.25 C13.25,2.83578644 13.5857864,2.5 14,2.5 Z M4.53033009,3.21770808 L9.83363094,8.47364615 L9.90565145,8.5563197 L9.83463567,8.47516623 C10.1249131,8.76285126 10.1270147,9.23138242 9.83932965,9.52165987 L4.53133481,14.7822919 C4.23767516,15.0733289 3.76433428,15.0733289 3.47067464,14.7822919 C3.18039719,14.4946069 3.17829562,14.0260757 3.46598066,13.7357983 L8.24357951,8.99943032 L3.46966991,4.2688957 C3.17939247,3.98121067 3.1772909,3.51267951 3.46497593,3.22240206 C3.76332956,2.92667106 4.23667044,2.92667106 4.53033009,3.21770808 Z" id="形状结合" fill="#FFFFFF"></path>
            </g>
        </g>
    </g>
</svg>