<svg t="1687691641533" class="icon" viewBox="0 0 1024 1024" version="1.1" xmlns="http://www.w3.org/2000/svg" p-id="9295" width="200" height="200"><path d="M227.555556 142.222222a42.666667 42.666667 0 0 0-42.666667 42.666667v654.222222a42.666667 42.666667 0 1 0 85.333333 0V184.888889A42.666667 42.666667 0 0 0 227.555556 142.222222z m538.737777 40.846222L464.554667 482.076444l-3.470223 3.982223-0.682666 0.796444a42.097778 42.097778 0 0 0 3.868444 54.840889l301.966222 299.235556a42.837333 42.837333 0 0 0 60.302223 0 42.097778 42.097778 0 0 0 0.284444-59.505778L555.064889 512l271.530667-269.141333a42.097778 42.097778 0 0 0 0.284444-59.562667 42.951111 42.951111 0 0 0-60.586667-0.227556z" p-id="9296"></path></svg>
